<svg width="120" height="24" viewBox="0 0 120 24" fill="none" xmlns="http://www.w3.org/2000/svg">
<path fill-rule="evenodd" clip-rule="evenodd" d="M12.0001 3.12705C14.8919 3.12705 15.2313 3.13994 16.3743 3.1915C17.4313 3.23877 18.0028 3.41494 18.3853 3.56533C18.8923 3.76299 19.2532 3.99502 19.6313 4.37314C20.0095 4.75127 20.2458 5.11221 20.4392 5.61924C20.5853 6.00166 20.7657 6.57314 20.813 7.63018C20.8646 8.77314 20.8774 9.1126 20.8774 12.0044C20.8774 14.8962 20.8646 15.2356 20.813 16.3786C20.7657 17.4356 20.5896 18.0071 20.4392 18.3896C20.2415 18.8966 20.0095 19.2575 19.6313 19.6356C19.2532 20.0138 18.8923 20.2501 18.3853 20.4435C18.0028 20.5896 17.4313 20.77 16.3743 20.8173C15.2313 20.8688 14.8919 20.8817 12.0001 20.8817C9.1083 20.8817 8.76885 20.8688 7.62588 20.8173C6.56885 20.77 5.99736 20.5938 5.61494 20.4435C5.10791 20.2458 4.74697 20.0138 4.36885 19.6356C3.99072 19.2575 3.75439 18.8966 3.56104 18.3896C3.41494 18.0071 3.23447 17.4356 3.18721 16.3786C3.13564 15.2356 3.12275 14.8962 3.12275 12.0044C3.12275 9.1126 3.13564 8.77314 3.18721 7.63018C3.23447 6.57314 3.41064 6.00166 3.56104 5.61924C3.75869 5.11221 3.99072 4.75127 4.36885 4.37314C4.74697 3.99502 5.10791 3.75869 5.61494 3.56533C5.99736 3.41924 6.56885 3.23877 7.62588 3.1915C8.76885 3.13564 9.1083 3.12705 12.0001 3.12705ZM12.0001 1.17627C9.06103 1.17627 8.6915 1.18916 7.53564 1.24072C6.38408 1.29229 5.59775 1.47705 4.91025 1.74346C4.19697 2.01846 3.59541 2.39229 2.99385 2.99385C2.39229 3.59541 2.02275 4.20127 1.74346 4.91025C1.47705 5.59775 1.29229 6.38408 1.24072 7.53994C1.18916 8.6915 1.17627 9.06103 1.17627 12.0001C1.17627 14.9392 1.18916 15.3087 1.24072 16.4646C1.29229 17.6161 1.47705 18.4024 1.74346 19.0942C2.01846 19.8075 2.39229 20.4091 2.99385 21.0106C3.59541 21.6122 4.20127 21.9817 4.91025 22.261C5.59775 22.5274 6.38408 22.7122 7.53994 22.7638C8.6958 22.8153 9.06104 22.8282 12.0044 22.8282C14.9478 22.8282 15.313 22.8153 16.4688 22.7638C17.6204 22.7122 18.4067 22.5274 19.0985 22.261C19.8118 21.986 20.4134 21.6122 21.0149 21.0106C21.6165 20.4091 21.986 19.8032 22.2653 19.0942C22.5317 18.4067 22.7165 17.6204 22.7681 16.4646C22.8196 15.3087 22.8325 14.9435 22.8325 12.0001C22.8325 9.05674 22.8196 8.6915 22.7681 7.53564C22.7165 6.38408 22.5317 5.59775 22.2653 4.90596C21.9903 4.19268 21.6165 3.59111 21.0149 2.98955C20.4134 2.38799 19.8075 2.01846 19.0985 1.73916C18.411 1.47275 17.6247 1.28799 16.4688 1.23643C15.3087 1.18916 14.9392 1.17627 12.0001 1.17627ZM12.0001 6.43994C8.93213 6.43994 6.43994 8.92783 6.43994 12.0001C6.43994 15.0724 8.93213 17.5603 12.0001 17.5603C15.0681 17.5603 17.5603 15.0681 17.5603 12.0001C17.5603 8.93213 15.0681 6.43994 12.0001 6.43994ZM12.0001 15.6095C10.0063 15.6095 8.39072 13.9938 8.39072 12.0001C8.39072 10.0063 10.0063 8.39072 12.0001 8.39072C13.9938 8.39072 15.6095 10.0063 15.6095 12.0001C15.6095 13.9938 13.9938 15.6095 12.0001 15.6095ZM19.0768 6.22081C19.0768 6.93749 18.4958 7.51847 17.7791 7.51847C17.0624 7.51847 16.4814 6.93749 16.4814 6.22081C16.4814 5.50414 17.0624 4.92316 17.7791 4.92316C18.4958 4.92316 19.0768 5.50414 19.0768 6.22081Z" fill="#D4D7E6"/>
<path d="M119 12C119 5.93026 114.07 1 108 1C101.93 1 97 5.93026 97 12C97 17.4944 101.028 22.041 106.285 22.8646V15.1703H103.476V11.9887H106.285V9.56308C106.285 6.81026 107.921 5.2759 110.426 5.2759C111.633 5.2759 112.874 5.51282 112.874 5.51282V8.19795H111.497C110.132 8.19795 109.692 9.05538 109.692 9.9241V11.9887H112.75L112.265 15.1703H109.704V22.8646C114.972 22.041 119 17.4944 119 12Z" fill="#D4D7E6"/>
<path d="M70 5.12968C69.2639 5.49108 68.4741 5.73618 67.6442 5.8456C68.4915 5.28339 69.1402 4.39164 69.4476 3.33232C68.6527 3.85297 67.7754 4.23102 66.8406 4.43596C66.092 3.55113 65.0271 3 63.8461 3C61.5803 3 59.7431 5.03554 59.7431 7.54465C59.7431 7.90051 59.7794 8.24808 59.8494 8.58044C56.44 8.3907 53.4168 6.58089 51.3935 3.83081C51.0398 4.50103 50.8386 5.28198 50.8386 6.11561C50.8386 7.69282 51.5634 9.08446 52.6632 9.89865C51.9909 9.87374 51.3585 9.6688 50.8048 9.32815V9.38492C50.8048 11.5866 52.2196 13.4241 54.0955 13.8423C53.7518 13.9448 53.3894 14.0016 53.0144 14.0016C52.7495 14.0016 52.4933 13.9725 52.2421 13.9171C52.7644 15.7242 54.2792 17.0383 56.0739 17.0743C54.6704 18.2929 52.9007 19.0171 50.9786 19.0171C50.6474 19.0171 50.3212 18.9949 50 18.9548C51.8159 20.2467 53.9718 21 56.2888 21C63.8362 21 67.9617 14.0736 67.9617 8.06671L67.9479 7.47821C68.754 6.84119 69.4513 6.04084 70 5.12968Z" fill="#D4D7E6"/>
</svg>
